<?xml version="1.0" encoding="UTF-8" standalone="no"?>
<!-- Created with Inkscape (http://www.inkscape.org/) -->

<svg
   width="58.254719mm"
   height="54.834621mm"
   viewBox="0 0 58.254719 54.834621"
   version="1.1"
   id="svg5118"
   inkscape:version="1.2.2 (b0a8486541, 2022-12-01)"
   sodipodi:docname="lottery_fairness.svg"
   xmlns:inkscape="http://www.inkscape.org/namespaces/inkscape"
   xmlns:sodipodi="http://sodipodi.sourceforge.net/DTD/sodipodi-0.dtd"
   xmlns="http://www.w3.org/2000/svg"
   xmlns:svg="http://www.w3.org/2000/svg">
  <sodipodi:namedview
     id="namedview5120"
     pagecolor="#ffffff"
     bordercolor="#000000"
     borderopacity="0.25"
     inkscape:showpageshadow="2"
     inkscape:pageopacity="0.0"
     inkscape:pagecheckerboard="0"
     inkscape:deskcolor="#d1d1d1"
     inkscape:document-units="mm"
     showgrid="false"
     inkscape:zoom="0.914906"
     inkscape:cx="-436.11037"
     inkscape:cy="116.9519"
     inkscape:window-width="3774"
     inkscape:window-height="2089"
     inkscape:window-x="66"
     inkscape:window-y="32"
     inkscape:window-maximized="1"
     inkscape:current-layer="layer1" />
  <defs
     id="defs5115" />
  <g
     inkscape:label="Livello 1"
     inkscape:groupmode="layer"
     id="layer1"
     transform="translate(-220.73438,-117.75698)">
    <path
       d="m 230.29168,164.21196 h 45.60923"
       style="fill:none;stroke:#000000;stroke-width:0.251984;stroke-linecap:butt;stroke-linejoin:miter;stroke-miterlimit:10;stroke-dasharray:none;stroke-opacity:1"
       id="path1116" />
    <path
       d="M 230.41762,164.3379 V 118.72867"
       style="fill:none;stroke:#000000;stroke-width:0.251984;stroke-linecap:butt;stroke-linejoin:miter;stroke-miterlimit:10;stroke-dasharray:none;stroke-opacity:1"
       id="path1118" />
    <path
       d="m 230.41762,165.21984 v -1.00788"
       style="fill:none;stroke:#000000;stroke-width:0.251984;stroke-linecap:butt;stroke-linejoin:miter;stroke-miterlimit:10;stroke-dasharray:none;stroke-opacity:1"
       id="path1120" />
    <path
       d="m 245.53697,165.21984 v -1.00788"
       style="fill:none;stroke:#000000;stroke-width:0.251984;stroke-linecap:butt;stroke-linejoin:miter;stroke-miterlimit:10;stroke-dasharray:none;stroke-opacity:1"
       id="path1122" />
    <path
       d="m 260.65597,165.21984 v -1.00788"
       style="fill:none;stroke:#000000;stroke-width:0.251984;stroke-linecap:butt;stroke-linejoin:miter;stroke-miterlimit:10;stroke-dasharray:none;stroke-opacity:1"
       id="path1124" />
    <path
       d="m 275.77497,165.21984 v -1.00788"
       style="fill:none;stroke:#000000;stroke-width:0.251984;stroke-linecap:butt;stroke-linejoin:miter;stroke-miterlimit:10;stroke-dasharray:none;stroke-opacity:1"
       id="path1126" />
    <path
       d="m 229.40974,164.21196 h 1.00788"
       style="fill:none;stroke:#000000;stroke-width:0.251984;stroke-linecap:butt;stroke-linejoin:miter;stroke-miterlimit:10;stroke-dasharray:none;stroke-opacity:1"
       id="path1128" />
    <path
       d="m 229.40974,155.14028 h 1.00788"
       style="fill:none;stroke:#000000;stroke-width:0.251984;stroke-linecap:butt;stroke-linejoin:miter;stroke-miterlimit:10;stroke-dasharray:none;stroke-opacity:1"
       id="path1130" />
    <path
       d="m 229.40974,146.06895 h 1.00788"
       style="fill:none;stroke:#000000;stroke-width:0.251984;stroke-linecap:butt;stroke-linejoin:miter;stroke-miterlimit:10;stroke-dasharray:none;stroke-opacity:1"
       id="path1132" />
    <path
       d="m 229.40974,136.99762 h 1.00788"
       style="fill:none;stroke:#000000;stroke-width:0.251984;stroke-linecap:butt;stroke-linejoin:miter;stroke-miterlimit:10;stroke-dasharray:none;stroke-opacity:1"
       id="path1134" />
    <path
       d="m 229.40974,127.92629 h 1.00788"
       style="fill:none;stroke:#000000;stroke-width:0.251984;stroke-linecap:butt;stroke-linejoin:miter;stroke-miterlimit:10;stroke-dasharray:none;stroke-opacity:1"
       id="path1136" />
    <path
       d="m 229.40974,118.85461 h 1.00788"
       style="fill:none;stroke:#000000;stroke-width:0.251984;stroke-linecap:butt;stroke-linejoin:miter;stroke-miterlimit:10;stroke-dasharray:none;stroke-opacity:1"
       id="path1138" />
    <g
       id="g1140"
       transform="matrix(0.35277777,0,0,-0.35277777,178.30247,310.16106)">
      <text
         xml:space="preserve"
         transform="matrix(1,0,0,-1,145.345,402.543)"
         style="font-variant:normal;font-size:8.57143px;font-family:'Nimbus Sans';-inkscape-font-specification:NimbusSanL-Regu;writing-mode:lr-tb;fill:#000000;fill-opacity:1;fill-rule:nonzero;stroke:none"
         id="text1158"><tspan
           x="0 40.474205 45.239922 80.948845 85.714554 90.48027 121.42305 126.18877 130.95448 135.7202"
           y="0"
           sodipodi:role="line"
           id="tspan1142">1101001000</tspan><tspan
           x="-14.5313 -9.7655849 -7.3827271"
           y="-8.0855503"
           sodipodi:role="line"
           id="tspan1144">0.0</tspan><tspan
           x="-14.5313 -9.7655849 -7.3827271"
           y="-33.800049"
           sodipodi:role="line"
           id="tspan1146">0.2</tspan><tspan
           x="-14.5313 -9.7655849 -7.3827271"
           y="-59.514149"
           sodipodi:role="line"
           id="tspan1148">0.4</tspan><tspan
           x="-14.5313 -9.7655849 -7.3827271"
           y="-85.228653"
           sodipodi:role="line"
           id="tspan1150">0.6</tspan><tspan
           x="-14.5313 -9.7655849 -7.3827271"
           y="-110.94275"
           sodipodi:role="line"
           id="tspan1152">0.8</tspan><tspan
           x="-14.5313 -9.7655849 -7.3827271"
           y="-136.65726"
           sodipodi:role="line"
           id="tspan1154">1.0</tspan><tspan
           x="45.462799 49.748516 54.514229 59.279945 61.662804 66.42852 71.194229 75.959946 80.725662 83.108521"
           y="10.71375"
           sodipodi:role="line"
           id="tspan1156">Job Length</tspan></text>
      <text
         xml:space="preserve"
         transform="matrix(0,1,1,0,126.528,457.519)"
         style="font-variant:normal;font-size:8.57143px;font-family:'Nimbus Sans';-inkscape-font-specification:NimbusSanL-Regu;writing-mode:lr-tb;fill:#000000;fill-opacity:1;fill-rule:nonzero;stroke:none"
         id="text1162"><tspan
           x="0 5.2371435 10.002859 11.905716 14.760002 19.525717 24.291433 28.577148"
           y="0"
           sodipodi:role="line"
           id="tspan1160">Fairness</tspan></text>
    </g>
    <path
       d="m 230.41762,118.85461 h 45.42261"
       style="fill:none;stroke:#000000;stroke-width:0.125992;stroke-linecap:butt;stroke-linejoin:miter;stroke-miterlimit:10;stroke-dasharray:0.503968, 0.503968;stroke-dashoffset:0;stroke-opacity:1"
       id="path1164" />
    <path
       d="m 230.41762,141.53329 4.55154,-5.6695 2.66206,-3.40183 1.88913,-1.13418 1.46509,-0.8315 1.19732,-1.43616 1.01212,-0.59408 0.87666,-0.35101 0.77328,-0.10477 0.69215,-0.15981 4.55119,-3.51508 2.66241,-0.99519 1.88878,-0.27093 1.46508,-0.35913 1.19733,0.12594 1.01212,-0.64452 0.87665,0.0367 0.77364,-0.375 0.6918,-0.53411 0.62548,-0.34784 0.5715,-0.0818 0.52563,-0.0924 0.48649,-0.17639 0.45296,-0.17321 0.42404,-0.0289 0.39793,-0.0162 0.37536,-0.0568 0.35489,0.037 0.33691,0.16193 0.32032,0.002 0.3055,-0.0286 0.29175,0.12136 0.27975,-0.17816 0.26776,-0.0854 0.25753,-0.0469 0.248,0.0547 0.23883,0.0667 0.23037,0.0335 0.2226,-0.004 0.2152,-0.14252 0.20849,0.003 0.20179,0.0445 0.19614,-0.0205 0.1905,-0.0413 0.18486,-0.0134 0.17991,-0.072 0.17533,0.0194 0.17039,0.0455 0.16616,-0.0212 0.16228,-0.0258 0.15805,0.0857 0.15451,0.018 0.15099,-0.0324 0.14781,-0.0632 0.14394,-0.121 0.14146,-0.0127 0.13829,-0.0124 0.13511,-0.06 0.13265,-0.007 0.13017,-0.013 0.12771,-0.008 0.12488,-0.006 0.12277,-0.054 0.1203,-0.0423 0.11853,-0.0663 0.11606,-0.0296 0.1143,-10e-4 0.11219,-0.0127 0.11042,-0.0123 0.10865,-0.0529 0.10654,-0.0656 0.10513,-0.006 0.10336,0.0251 0.10196,-0.0293 0.10018,-0.0148 0.0988,-0.0166 0.097,0.006 0.0959,0.002 0.0946,0.006 0.0931,0.013 0.0921,-0.009 0.0903,-0.009 0.0892,0.001 0.0882,0.036 0.0871,0.0155 0.0857,-0.0258 0.0847,0.007 0.084,-0.0251 0.0822,-0.0127 0.0818,-0.0109 0.0804,-0.013 0.0797,0.0123 0.0787,0.005 0.0776,0.002 0.0769,3.5e-4 0.0759,-0.0497 0.0748,0.002 0.0744,-0.0219 0.0734,0.009 0.0727,-0.0339 0.0716,0.006 0.0709,-0.0166 0.0702,-0.0145 0.0695,0.0159 0.0688,-7e-4 0.0681,-0.0243 0.0674,0.0349 0.0667,-0.0138 0.066,-0.0183"
       style="fill:none;stroke:#ffa600;stroke-width:0.503968;stroke-linecap:butt;stroke-linejoin:miter;stroke-miterlimit:10;stroke-dasharray:none;stroke-opacity:1"
       id="path1166" />
  </g>
</svg>
