<?xml version="1.0" encoding="UTF-8" standalone="no"?>
<!DOCTYPE svg PUBLIC "-//W3C//DTD SVG 20010904//EN" "http://www.w3.org/TR/2001/REC-SVG-20010904/DTD/svg10.dtd">
<svg version="1.0" xmlns="http://www.w3.org/2000/svg" width="1280.000000pt" height="1280.000000pt" viewBox="0 0 1280.000000 1280.000000" preserveAspectRatio="xMidYMid meet">
<metadata>
Created by potrace 1.15, written by Peter Selinger 2001-2017
</metadata>
<g transform="translate(0.000000,1280.000000) scale(0.100000,-0.100000)" fill="#000000" stroke="none">
<path d="M6452 10940 c-6 -11 -12 -35 -12 -54 0 -67 -79 -213 -164 -304 -62 -66 -88 -111 -111 -194 -17 -65 -17 -68 3 -131 26 -83 59 -135 117 -182 79 -66 72 -94 -42 -167 -85 -54 -149 -128 -193 -224 -21 -45 -43 -84 -48 -88 -27 -16 -42 -72 -42 -152 0 -79 -1 -84 -22 -88 -13 -3 -104 -8 -203 -10 -175 -6 -317 -16 -460 -35 -88 -11 -324 -57 -390 -75 -27 -8 -75 -20 -105 -26 -30 -6 -77 -17 -105 -25 -27 -7 -68 -18 -90 -24 -57 -14 -458 -142 -470 -151 -5 -3 -30 -14 -55 -22 -25 -9 -101 -38 -170 -63 -151 -57 -299 -105 -323 -105 -9 0 -25 -4 -35 -9 -16 -9 -57 -18 -252 -56 -41 -8 -97 -15 -123 -15 -43 0 -54 5 -100 45 -133 116 -306 112 -418 -10 -65 -71 -84 -116 -83 -205 0 -88 26 -151 87 -213 32 -32 38 -43 32 -65 -4 -15 -51 -120 -106 -234 -54 -114 -99 -209 -99 -212 0 -3 -36 -80 -80 -171 -44 -91 -80 -168 -80 -170 0 -3 -24 -56 -54 -118 -54 -114 -115 -243 -166 -352 -15 -33 -48 -103 -73 -155 -24 -52 -52 -113 -62 -135 -10 -22 -49 -104 -86 -183 -38 -79 -69 -145 -69 -146 0 -2 -29 -64 -64 -137 -35 -74 -75 -159 -88 -189 -70 -151 -95 -205 -149 -318 -33 -68 -59 -124 -59 -126 0 -2 -29 -64 -64 -137 -80 -169 -146 -310 -146 -314 0 -2 -38 -83 -85 -180 -47 -97 -85 -178 -85 -181 0 -2 -32 -69 -70 -149 -39 -80 -70 -147 -70 -150 0 -2 -28 -62 -61 -132 -104 -216 -129 -272 -129 -281 0 -15 -35 -42 -56 -42 -28 -1 -95 -50 -121 -89 -48 -70 -22 -223 45 -267 41 -28 92 -44 140 -44 33 0 61 -10 115 -42 73 -42 261 -138 273 -138 3 0 38 -14 77 -31 128 -54 178 -73 232 -90 22 -7 58 -18 80 -24 22 -7 60 -18 85 -25 25 -7 65 -18 90 -25 25 -8 70 -19 100 -26 30 -6 71 -16 90 -21 70 -20 282 -56 395 -68 522 -56 1010 -42 1435 41 106 21 456 109 545 138 82 26 109 36 170 62 11 5 68 29 127 53 126 54 193 86 306 150 61 34 93 46 125 46 87 0 154 41 188 115 33 71 19 175 -29 228 -22 25 -86 57 -112 57 -16 0 -29 18 -59 83 -21 45 -62 130 -90 190 -28 59 -51 109 -51 112 0 2 -30 66 -66 142 -36 76 -94 199 -129 273 -64 137 -121 259 -180 385 -50 106 -100 215 -123 265 -11 25 -50 108 -87 185 -36 77 -75 158 -85 180 -89 188 -136 288 -157 335 -14 30 -52 111 -84 178 -33 68 -59 125 -59 127 0 2 -32 71 -71 152 -39 81 -81 173 -95 205 -13 31 -51 110 -84 177 -33 66 -60 122 -60 125 0 6 -55 125 -131 283 -33 69 -69 147 -79 172 -10 25 -30 69 -45 96 -22 41 -98 204 -135 290 -4 11 -36 75 -69 143 -34 68 -61 132 -61 142 0 32 56 70 103 70 84 0 345 38 497 72 47 11 103 23 125 28 92 20 121 28 145 38 43 18 228 75 300 92 97 24 178 42 205 46 17 3 37 8 45 11 19 7 138 31 210 42 30 5 62 12 70 15 19 7 121 20 355 46 306 34 841 25 867 -14 4 -6 8 -51 8 -101 0 -74 4 -96 21 -125 12 -19 25 -37 29 -40 5 -3 25 -41 44 -84 30 -64 51 -94 112 -153 l76 -74 -16 -38 c-25 -54 -34 -143 -25 -235 4 -45 12 -164 18 -266 6 -102 17 -252 23 -335 6 -82 13 -355 16 -605 4 -474 4 -478 -49 -1150 -12 -151 -25 -321 -29 -377 -4 -55 -11 -106 -14 -111 -3 -6 -11 -61 -17 -124 -24 -256 -46 -394 -81 -518 -5 -19 -12 -89 -15 -156 -5 -108 -3 -127 17 -188 23 -66 74 -155 119 -205 27 -31 27 -34 -7 -73 -35 -41 -66 -94 -81 -140 -6 -19 -32 -59 -58 -89 -85 -100 -120 -164 -152 -284 -5 -22 -11 -119 -12 -215 -3 -239 -25 -314 -114 -387 -82 -68 -108 -75 -313 -79 -103 -2 -216 -6 -252 -10 -88 -8 -160 -44 -213 -105 l-42 -49 -318 0 c-256 0 -330 -3 -380 -16 -126 -31 -200 -114 -212 -234 -4 -38 -4 -78 0 -89 l6 -21 2445 0 c2179 0 2445 2 2450 15 4 9 3 49 -1 90 -8 88 -44 151 -110 196 -76 52 -133 59 -482 59 l-318 0 -42 49 c-50 57 -122 95 -203 106 -30 4 -125 7 -210 7 -194 -1 -258 10 -324 52 -64 42 -88 68 -120 132 -25 50 -26 58 -26 235 0 164 -3 194 -25 276 -29 109 -65 176 -140 263 -31 36 -58 76 -62 90 -9 40 -43 102 -80 147 l-34 42 41 52 c49 62 81 123 104 199 21 69 17 262 -8 360 -21 82 -44 221 -56 327 -4 45 -11 86 -14 92 -3 5 -7 35 -7 68 -1 32 -7 89 -15 126 -8 38 -14 96 -14 131 0 34 -5 87 -10 117 -10 56 -23 213 -40 504 -5 88 -14 216 -20 285 -13 165 -12 829 1 1050 6 96 14 243 19 325 5 83 14 227 20 320 14 196 9 295 -15 347 l-18 36 72 68 c57 54 80 84 111 149 21 45 46 88 55 95 34 28 45 68 45 163 0 68 4 98 14 106 25 21 158 30 421 31 311 0 421 -10 870 -80 84 -13 169 -30 195 -40 14 -5 39 -11 55 -14 89 -13 399 -98 515 -141 133 -49 618 -135 761 -135 42 0 50 -4 73 -35 33 -42 34 -37 -49 -210 -34 -71 -74 -155 -88 -185 -14 -30 -43 -93 -65 -140 -22 -47 -60 -128 -85 -180 -24 -52 -56 -121 -71 -152 -31 -70 -79 -173 -157 -336 -33 -68 -59 -124 -59 -126 0 -2 -29 -64 -65 -139 -36 -75 -65 -138 -65 -141 0 -2 -34 -75 -76 -162 -41 -86 -86 -180 -98 -208 -46 -101 -79 -172 -116 -246 -21 -41 -52 -109 -70 -150 -18 -41 -60 -131 -93 -200 -32 -69 -88 -186 -122 -260 -34 -74 -83 -178 -108 -230 -24 -52 -58 -124 -75 -160 -16 -36 -51 -110 -77 -165 -26 -55 -56 -120 -67 -145 -53 -117 -80 -173 -132 -280 -31 -63 -56 -118 -56 -121 0 -4 -36 -81 -81 -173 -68 -142 -83 -166 -103 -166 -38 0 -113 -55 -137 -101 -18 -36 -21 -55 -16 -112 4 -56 10 -75 34 -105 38 -48 105 -81 166 -82 40 0 67 -10 155 -60 59 -32 148 -77 197 -98 213 -92 311 -132 323 -132 7 0 20 -4 30 -9 18 -9 92 -32 157 -49 22 -6 67 -17 100 -26 33 -9 76 -20 95 -25 19 -5 55 -14 80 -21 78 -20 297 -58 415 -71 439 -49 965 -39 1330 26 50 9 113 18 140 22 28 3 55 9 60 13 6 5 28 11 50 15 22 4 74 16 115 27 41 11 89 24 105 28 176 47 282 83 435 149 178 77 240 106 333 160 73 42 97 51 137 51 139 0 236 126 200 261 -14 51 -84 125 -127 134 -16 4 -34 10 -42 14 -8 4 -50 83 -93 177 -44 93 -104 220 -134 282 -30 62 -54 115 -54 117 0 2 -34 75 -76 162 -41 87 -88 187 -104 223 -16 36 -51 111 -79 168 -28 56 -51 105 -51 107 0 6 -52 118 -131 280 -33 67 -59 124 -59 128 0 4 -36 82 -80 173 -44 90 -80 166 -80 169 0 6 -78 171 -125 265 -23 47 -63 132 -88 190 -25 58 -57 125 -71 150 -13 25 -39 79 -56 120 -18 41 -59 131 -92 200 -33 69 -76 159 -95 200 -39 84 -70 149 -138 295 -26 55 -56 120 -67 145 -11 25 -42 91 -69 147 -27 55 -62 130 -78 166 -48 104 -111 237 -142 300 l-29 57 38 38 c22 21 52 60 68 87 26 45 29 58 28 140 0 86 -1 92 -36 146 -88 137 -248 186 -383 118 -33 -16 -74 -45 -92 -64 -29 -31 -37 -35 -85 -35 -60 0 -183 23 -378 69 -63 16 -214 62 -285 88 -101 38 -277 104 -300 113 -11 5 -61 22 -111 39 -50 17 -102 35 -115 40 -26 10 -179 56 -244 72 -22 6 -60 16 -85 24 -25 7 -72 18 -105 25 -33 7 -76 17 -95 22 -39 11 -65 17 -225 48 -201 39 -384 58 -630 66 -93 2 -185 7 -202 10 l-33 5 0 93 c0 90 -1 93 -34 132 -18 21 -39 57 -47 79 -32 91 -100 176 -186 231 -87 57 -103 73 -103 109 0 24 9 39 45 68 63 53 99 111 120 192 18 68 18 73 0 130 -23 76 -47 118 -100 175 -95 102 -160 220 -172 309 -9 73 -53 106 -81 61z m-3525 -2865 c41 -89 87 -189 165 -355 22 -47 54 -114 70 -150 48 -103 81 -175 152 -323 36 -77 66 -140 66 -142 0 -1 38 -82 85 -180 47 -97 85 -178 85 -180 0 -1 22 -49 49 -106 60 -127 106 -228 136 -294 12 -27 50 -107 84 -178 33 -70 61 -129 61 -132 0 -2 35 -78 79 -167 43 -90 87 -183 99 -208 32 -72 76 -167 130 -280 27 -58 57 -123 67 -145 10 -22 55 -117 101 -212 45 -95 85 -181 89 -193 3 -11 29 -66 57 -123 28 -56 88 -185 135 -287 47 -102 98 -210 115 -242 16 -31 28 -64 26 -75 -3 -17 -67 -18 -1918 -21 -1155 -1 -1918 2 -1923 7 -6 6 8 46 36 103 25 51 56 118 70 148 14 30 48 105 77 165 52 111 89 189 140 300 15 33 53 113 84 178 31 65 56 120 56 122 0 3 28 62 61 132 34 70 73 153 86 183 14 30 48 102 75 160 64 134 251 533 335 715 35 77 84 181 107 230 24 50 54 113 67 140 12 28 57 124 101 214 43 90 78 165 78 167 0 5 43 96 128 274 32 69 73 157 90 195 17 39 53 116 81 173 28 56 51 105 51 108 0 3 30 67 66 142 37 75 80 166 96 201 28 63 29 64 47 45 9 -10 36 -59 58 -109z m7263 -20 c39 -80 70 -148 70 -151 0 -2 40 -89 89 -192 48 -103 97 -207 109 -232 11 -25 45 -97 75 -160 30 -63 69 -146 87 -185 18 -38 56 -119 85 -180 28 -60 60 -128 70 -150 10 -22 49 -105 88 -185 38 -80 82 -174 97 -210 15 -36 55 -121 88 -190 33 -69 73 -154 90 -190 16 -36 52 -112 80 -170 27 -58 62 -132 77 -165 65 -143 86 -187 144 -308 33 -71 61 -130 61 -132 0 -2 32 -69 70 -149 39 -81 70 -148 70 -150 0 -4 82 -178 177 -376 36 -74 73 -155 83 -180 10 -25 42 -92 70 -150 70 -140 74 -151 58 -162 -7 -4 -872 -8 -1921 -8 -1766 0 -1908 2 -1914 17 -4 10 11 51 36 102 24 47 49 100 56 116 8 17 42 89 76 160 81 170 139 295 139 300 0 2 25 57 56 122 32 65 87 183 124 263 37 80 98 210 135 290 36 79 96 204 131 277 35 73 64 135 64 138 0 2 36 79 80 170 44 92 92 193 105 225 14 33 38 85 54 117 15 32 40 83 54 113 24 51 48 103 157 335 71 151 107 227 143 305 19 41 53 113 75 160 22 47 54 117 72 155 44 93 97 208 155 330 25 55 54 116 62 135 76 168 138 290 150 290 2 0 35 -65 73 -145z"/>
</g>
</svg>